<?xml version="1.0" encoding="UTF-8" standalone="no"?>
<!-- Created with Inkscape (http://www.inkscape.org/) -->

<svg
   width="98mm"
   height="111mm"
   viewBox="0 0 98 111"
   version="1.1"
   id="svg5"
   sodipodi:docname="source.svg"
   inkscape:version="1.2.2 (732a01da63, 2022-12-09)"
   xml:space="preserve"
   xmlns:inkscape="http://www.inkscape.org/namespaces/inkscape"
   xmlns:sodipodi="http://sodipodi.sourceforge.net/DTD/sodipodi-0.dtd"
   xmlns="http://www.w3.org/2000/svg"
   xmlns:svg="http://www.w3.org/2000/svg"><sodipodi:namedview
     id="namedview7"
     pagecolor="#505050"
     bordercolor="#ffffff"
     borderopacity="1"
     inkscape:showpageshadow="0"
     inkscape:pageopacity="0"
     inkscape:pagecheckerboard="1"
     inkscape:deskcolor="#505050"
     inkscape:document-units="mm"
     showgrid="false"
     inkscape:zoom="1.4770342"
     inkscape:cx="71.088401"
     inkscape:cy="229.51398"
     inkscape:window-width="1920"
     inkscape:window-height="1009"
     inkscape:window-x="1912"
     inkscape:window-y="-8"
     inkscape:window-maximized="1"
     inkscape:current-layer="layer1" /><defs
     id="defs2"><filter
       style="color-interpolation-filters:sRGB"
       inkscape:label="Colorize"
       id="filter4783"
       x="0"
       y="0"
       width="1"
       height="1"><feColorMatrix
         values="1.38778e-16 0 0 0 1 0 1.38778e-16 0 0 1 0 0 1.38778e-16 0 1 0 0 0 1 0"
         id="feColorMatrix4781"
         result="fbSourceGraphic" /><feColorMatrix
         result="fbSourceGraphicAlpha"
         in="fbSourceGraphic"
         values="0 0 0 -1 0 0 0 0 -1 0 0 0 0 -1 0 0 0 0 1 0"
         id="feColorMatrix10466" /><feComposite
         in2="fbSourceGraphic"
         id="feComposite10468"
         operator="arithmetic"
         k1="0"
         k2="0"
         result="composite1"
         in="fbSourceGraphic"
         k3="0"
         k4="0" /><feColorMatrix
         id="feColorMatrix10470"
         in="composite1"
         values="1"
         type="saturate"
         result="colormatrix1" /><feFlood
         id="feFlood10472"
         flood-opacity="1"
         flood-color="rgb(221,116,0)"
         result="flood1" /><feBlend
         in2="colormatrix1"
         id="feBlend10474"
         in="flood1"
         mode="normal"
         result="blend1" /><feBlend
         in2="blend1"
         id="feBlend10476"
         mode="normal"
         result="blend2" /><feColorMatrix
         id="feColorMatrix10478"
         in="blend2"
         values="1"
         type="saturate"
         result="colormatrix2" /><feComposite
         in2="fbSourceGraphic"
         id="feComposite10480"
         in="colormatrix2"
         operator="in"
         result="composite2" /></filter><filter
       style="color-interpolation-filters:sRGB;"
       inkscape:label="Drop Shadow"
       id="filter5342"
       x="-0.139677"
       y="-0.10220565"
       width="1.2968136"
       height="1.2150577"><feFlood
         flood-opacity="1"
         flood-color="rgb(0,0,0)"
         result="flood"
         id="feFlood5332" /><feComposite
         in="flood"
         in2="SourceGraphic"
         operator="in"
         result="composite1"
         id="feComposite5334" /><feGaussianBlur
         in="composite1"
         stdDeviation="4"
         result="blur"
         id="feGaussianBlur5336" /><feOffset
         dx="1.2"
         dy="1"
         result="offset"
         id="feOffset5338" /><feComposite
         in="SourceGraphic"
         in2="offset"
         operator="over"
         result="composite2"
         id="feComposite5340" /></filter></defs><g
     inkscape:label="Calque 1"
     inkscape:groupmode="layer"
     id="layer1"><path
       id="rect1096"
       style="fill:#dd7400;stroke-width:0.767245;stroke-linecap:round;stroke-linejoin:round"
       d="m 25.649861,8.0722024 c -5.522774,5.17e-5 -9.999855,4.4771316 -9.999906,9.9999056 5.1e-5,5.522775 4.477132,9.999856 9.999906,9.999907 3.218021,-0.0024 6.238256,-1.553284 8.115267,-4.167188 l 5.975863,10e-7 -14.801164,58.796927 c -4.0999,1.349246 -6.871458,5.176755 -6.873999,9.492961 -2.33e-4,5.523177 4.477245,10.000654 10.000423,10.000424 5.522976,-5e-5 10.00014,-4.477448 9.999907,-10.000424 -3.23e-4,-2.034186 -0.621005,-4.0199 -1.77922,-5.69216 l 5.62498,-22.345406 c 20.84494,-1.898741 19.064083,1.52928 21.54132,20.757907 -2.007737,1.88898 -3.146639,4.522983 -3.147611,7.279659 -2.33e-4,5.522976 4.476931,10.000374 9.999906,10.000424 5.522976,-5e-5 10.000141,-4.477448 9.999907,-10.000425 C 80.305008,88.08462 77.78977,84.393349 73.964741,82.889341 72.286918,54.152821 71.471445,54.48384 44.346911,54.483839 L 52.044632,23.904827 C 89.349412,25.177946 49.31652,34.742188 76.882909,46.378908 100.94264,4.5570922 64.263692,11.55312 33.771846,12.239389 31.893452,9.6235619 28.870252,8.0724337 25.649861,8.0722024 Z"
       sodipodi:nodetypes="ccccccccccccccccccccc" /><path
       style="fill:#0075be;fill-opacity:1;stroke-width:0.677032;stroke-linecap:round;stroke-linejoin:round;filter:url(#filter5342)"
       d="m 21.46727,101.84461 c -3.631189,-0.56505 -6.673473,-3.308238 -7.933686,-7.15369 -0.456213,-1.392102 -0.422693,-4.016152 0.07118,-5.572053 0.787496,-2.480937 2.742443,-4.748268 5.058039,-5.866273 l 1.365129,-0.659106 7.369555,-29.287996 c 4.053256,-16.1084 7.368645,-29.348456 7.367531,-29.422347 -0.0011,-0.07389 -1.342865,-0.134349 -2.981667,-0.134349 h -2.979646 l -1.278315,1.209137 c -1.52649,1.443884 -2.649939,2.080607 -4.510815,2.556539 -2.371381,0.606497 -4.566038,0.35592 -6.818776,-0.778542 C 10.290427,23.762033 8.9321074,15.780676 13.535911,11.106694 17.486888,7.0954918 23.499612,7.0033337 27.502182,10.892631 l 1.247936,1.212618 1.7973,-0.0015 c 0.988514,-8.47e-4 5.424711,-0.161371 9.858217,-0.356741 15.334356,-0.675731 22.919833,-0.405314 28.39234,1.01217 6.089755,1.577363 9.522356,4.584366 10.500211,9.198325 0.38916,1.83623 0.234262,5.164137 -0.358521,7.702652 -0.968512,4.147519 -3.265217,9.641419 -6.229212,14.900767 l -0.876615,1.555472 -0.98565,-0.435903 c -4.402761,-1.947111 -7.62986,-4.435465 -8.743246,-6.741756 -0.959728,-1.987994 -0.764394,-3.781067 0.773354,-7.099043 1.184163,-2.555055 1.392441,-3.367355 1.107379,-4.318815 -0.507572,-1.694114 -3.129312,-2.662459 -8.980824,-3.317089 -1.330052,-0.148798 -3.681465,-0.324279 -5.225367,-0.389959 l -2.807092,-0.119417 -0.181202,0.698946 c -0.09966,0.38442 -1.802164,7.147678 -3.783338,15.029464 -1.981173,7.881784 -3.640407,14.458492 -3.687188,14.614901 -0.07612,0.254508 0.588049,0.296979 6.321729,0.404214 7.415056,0.138687 9.958528,0.324422 12.636886,0.92278 6.052047,1.352066 8.377206,4.743849 9.517496,13.883497 0.33455,2.681475 0.758929,7.767973 0.9275,11.116778 l 0.122264,2.428899 1.172855,0.608097 c 1.360715,0.705498 2.974446,2.216787 3.704424,3.469261 2.313159,3.968862 1.848823,8.594781 -1.188646,11.841848 -2.078323,2.221733 -4.271568,3.189133 -7.230261,3.189133 -2.958692,0 -5.151937,-0.9674 -7.230261,-3.189133 -3.424954,-3.661288 -3.557354,-9.057428 -0.319757,-13.032319 l 0.779143,-0.956577 -0.685911,-5.543632 C 57.090435,73.056796 56.767437,71.194774 56.14402,69.356743 55.104208,66.291029 53.42431,64.732345 50.315861,63.949115 48.741352,63.552388 42.785914,63.434336 39.426325,63.73326 l -2.591488,0.230579 -2.814592,11.161559 -2.814591,11.161562 0.607281,1.198512 c 0.334005,0.65918 0.730169,1.722472 0.880365,2.362866 1.582518,6.747455 -4.333053,13.068912 -11.22603,11.996292 z"
       id="path4046" /></g></svg>
