<?xml version="1.0" encoding="UTF-8" standalone="no"?>
<!-- Created with Inkscape (http://www.inkscape.org/) -->

<svg
   width="200mm"
   height="210mm"
   viewBox="0 0 200 210"
   version="1.1"
   id="svg5"
   inkscape:version="1.2.2 (732a01da63, 2022-12-09)"
   sodipodi:docname="icon.svg"
   xmlns:inkscape="http://www.inkscape.org/namespaces/inkscape"
   xmlns:sodipodi="http://sodipodi.sourceforge.net/DTD/sodipodi-0.dtd"
   xmlns="http://www.w3.org/2000/svg"
   xmlns:svg="http://www.w3.org/2000/svg">
  <sodipodi:namedview
     id="namedview7"
     pagecolor="#505050"
     bordercolor="#ffffff"
     borderopacity="1"
     inkscape:showpageshadow="0"
     inkscape:pageopacity="0"
     inkscape:pagecheckerboard="1"
     inkscape:deskcolor="#505050"
     inkscape:document-units="mm"
     showgrid="false"
     inkscape:zoom="1.0211565"
     inkscape:cx="210.05595"
     inkscape:cy="406.40196"
     inkscape:window-width="1920"
     inkscape:window-height="1009"
     inkscape:window-x="1912"
     inkscape:window-y="-8"
     inkscape:window-maximized="1"
     inkscape:current-layer="layer1" />
  <defs
     id="defs2" />
  <g
     inkscape:label="Calque 1"
     inkscape:groupmode="layer"
     id="layer1">
    <path
       id="path413"
       style="fill:#ff6600;stroke-width:2.36983;stroke-linecap:round;stroke-linejoin:round"
       d="m 120.43132,0.22855097 c -0.38492,3.131e-4 -0.7703,0.0021 -1.15532,0.00477 -15.32973,0.1226782 -30.636917,2.20002053 -45.46928,6.12374353 -1.756058,1.0121671 -1.32104,3.5063121 -0.10712,4.7865115 5.649734,9.484371 11.208285,19.040688 16.914931,28.480506 1.71319,1.500635 4.13543,0.573426 6.17454,0.832986 13.964189,-0.02896 27.942249,0.05767 41.898069,-0.04364 2.15022,-0.725395 2.60548,-3.305619 3.87822,-4.946513 5.60312,-9.462544 11.20658,-18.92487 16.80972,-28.3874164 0.52836,-1.9893782 -1.58474,-3.4658974 -3.35984,-3.3843029 -11.33774,-2.2326793 -22.87928,-3.40042223 -34.42952,-3.46381733 -0.38502,-0.0021 -0.76946,-0.00325 -1.1544,-0.00286 z M 171.0145,7.3287976 c -0.20966,0.0097 -0.41966,0.01932 -0.62932,0.02909 -1.99526,0.380022 -2.43432,2.632494 -3.49948,4.0718324 -7.12274,12.097814 -14.38798,24.122898 -21.38418,36.284766 0.0416,1.248257 -1.37384,1.346147 -2.28198,1.128748 -18.58298,0.03108 -37.17735,-0.0432 -55.753483,0.05334 -1.131798,0.457641 -2.439232,-0.07478 -3.534862,-0.248247 -0.466514,-1.42295 0.17034,-3.095514 -0.753646,-4.431594 -1.681306,-2.942871 -3.478816,-5.82172 -5.172223,-8.763317 -3.613988,-6.0586 -7.191568,-12.14635 -10.802564,-18.207349 L -0.45696463,210.1135 H 20.275926 c 2.017074,-0.43185 2.14584,-2.83903 2.111736,-4.52468 0.255312,-5.1311 0.717708,-10.27077 0.844502,-15.39616 -0.627674,-1.83431 -2.734368,-2.51949 -3.450698,-4.32783 -2.309583,-3.91625 -1.120755,-9.47104 2.68462,-11.96238 4.238826,-3.03162 10.873734,-2.34271 13.908004,2.1101 2.695066,3.56028 2.205134,9.10762 -1.19646,12.02831 -1.147708,1.1949 -3.205296,1.68722 -3.29863,3.64614 -0.315508,5.43092 -0.654746,10.87759 -0.979358,16.31545 0.341306,2.05714 2.729,2.32878 4.396584,2.11105 h 63.542415 c 1.680079,-0.66429 2.140019,-3.39308 0.5088,-4.40929 -6.17768,-7.39357 -8.09557,-18.15555 -4.84609,-27.26643 0.62536,-2.25212 -1.71237,-3.49444 -3.02797,-4.81851 -15.031939,-13.63421 -29.981863,-27.37857 -45.079064,-40.92872 -0.898396,-0.35017 -2.129488,-1.05439 -2.239894,-2.04319 0.263146,-1.40846 -1.117834,-2.52754 -2.378574,-2.56198 -0.52103,-0.70098 -1.810524,-1.36946 -1.553196,-2.33798 1.186762,-1.31082 2.908508,-1.96018 4.233992,-3.12152 8.374904,-5.91228 16.826459,-11.73668 25.153381,-17.70406 1.108908,-1.54631 0.982746,-3.69543 2.302062,-5.153081 1.452598,-2.13699 3.829578,-3.405546 6.274954,-3.936044 1.862503,-1.313187 1.749739,-3.904396 2.628193,-5.828969 2.741324,-8.570741 5.33479,-17.191422 8.224104,-25.712943 1.496992,-0.344974 2.971542,0.557401 4.465442,0.693346 1.23898,0.305408 2.74326,0.233052 3.7797,0.960018 0.0393,1.716372 -1.01004,3.252115 -1.33992,4.920329 -2.93356,9.377451 -5.983944,18.733017 -8.844806,28.124613 0.03132,1.886141 1.526306,3.401501 1.447992,5.336351 0.4693,4.7769 -3.133722,9.70022 -7.96396,10.08794 -2.143299,0.3641 -4.242397,-0.37441 -6.141059,-1.27421 -2.256916,-0.0576 -3.705942,2.02173 -5.55096,3.00804 -4.449852,3.17595 -9.026422,6.22413 -13.397283,9.47993 -1.126258,1.52657 0.04294,3.52986 1.460428,4.37245 13.863567,12.62455 27.727486,25.2485 41.591068,37.87317 1.700999,1.01964 3.311209,-0.57737 4.467349,-1.69799 8.1099,-6.92725 20.27867,-8.45146 29.76037,-3.58987 2.72614,1.29083 5.13722,3.16348 7.349,5.20057 1.51068,0.9013 3.16564,-0.22619 4.12592,-1.41093 13.8307,-12.59576 27.66188,-25.19119 41.49256,-37.78685 1.07814,-1.66886 -0.32494,-3.65082 -1.9061,-4.31426 -6.22236,-4.32776 -12.38634,-8.77107 -18.64506,-13.02716 -1.8769,-0.53275 -3.7536,0.75388 -5.65712,0.16476 -4.77566,-0.72508 -8.58146,-5.64433 -7.66844,-10.55145 0.1596,-1.697771 1.0757,-3.155041 1.8602,-4.598371 0.29856,-2.353393 -1.13892,-4.440086 -1.59816,-6.681345 -2.48652,-7.858482 -4.99662,-15.700411 -7.41308,-23.569872 1.01966,-1.043448 2.72618,-0.694552 4.0322,-1.172384 1.40596,-0.20231 2.91864,-0.907416 4.28946,-0.623528 0.93922,1.45852 0.97066,3.310487 1.7005,4.878633 2.44096,7.626052 4.77212,15.303644 7.28108,22.897861 1.19134,1.666712 3.59878,1.524294 4.92356,3.073998 2.26492,1.957677 3.48814,5.021938 3.26132,8.018558 0.59506,2.20512 3.09312,2.82531 4.61848,4.21923 8.25004,5.77603 16.51392,11.5319 24.72302,17.36759 V 24.379284 l -3.24796,-1.962702 -14.74486,14.224738 0.51262,16.581145 a 9.2537571,9.3825579 0 0 1 6.6671,9.007675 9.2537571,9.3825579 0 0 1 -9.25414,9.381986 9.2537571,9.3825579 0 0 1 -9.2532,-9.381986 9.2537571,9.3825579 0 0 1 4.61368,-8.110691 L 174.24808,35.063596 173.4954,34.261643 189.82598,18.506697 171.63616,7.5130446 c -0.20762,-0.06006 -0.41382,-0.124931 -0.62166,-0.184247 z M 121.02048,83.440699 c 0.1208,-0.0023 0.24178,-0.0021 0.36248,0 0.24138,0.0044 0.4824,0.01642 0.724,0.03007 5.27652,0.408414 9.9425,5.926233 8.52154,11.319469 -1.1604,5.107541 -6.79862,8.455472 -11.77332,7.108022 -4.42318,-0.96094 -8.20529,-5.331136 -7.50871,-10.059839 0.47231,-4.657145 4.75057,-8.3285 9.31153,-8.382197 0.1208,-0.0086 0.24164,-0.01317 0.36248,-0.01546 z m 78.52256,44.521531 c -0.39278,0.38451 -0.78594,0.76908 -1.07406,1.20536 -1.17982,1.44616 -2.30578,3.03912 -4.05418,3.80612 -11.56152,10.35843 -22.97736,20.89031 -34.48118,31.3179 -4.27632,3.9353 -8.64722,7.78817 -12.86458,11.77523 -1.12786,1.95222 0.55758,3.99676 0.72782,5.98702 1.78592,8.68888 -0.69504,18.22336 -6.66898,24.74613 -0.77974,1.88028 1.34438,3.94114 3.20586,3.31351 h 55.2093 z" />
  </g>
</svg>
