<?xml version="1.0" encoding="UTF-8" standalone="no"?>
<!-- Created with Inkscape (http://www.inkscape.org/) -->

<svg
   width="150mm"
   height="170mm"
   viewBox="0 0 150 170"
   version="1.1"
   id="svg5"
   sodipodi:docname="icon.svg"
   inkscape:version="1.2.2 (732a01da63, 2022-12-09)"
   xml:space="preserve"
   xmlns:inkscape="http://www.inkscape.org/namespaces/inkscape"
   xmlns:sodipodi="http://sodipodi.sourceforge.net/DTD/sodipodi-0.dtd"
   xmlns="http://www.w3.org/2000/svg"
   xmlns:svg="http://www.w3.org/2000/svg"><sodipodi:namedview
     id="namedview7"
     pagecolor="#505050"
     bordercolor="#ffffff"
     borderopacity="1"
     inkscape:showpageshadow="0"
     inkscape:pageopacity="0"
     inkscape:pagecheckerboard="1"
     inkscape:deskcolor="#505050"
     inkscape:document-units="mm"
     showgrid="false"
     inkscape:zoom="0.36925856"
     inkscape:cx="-701.40554"
     inkscape:cy="777.23317"
     inkscape:window-width="1920"
     inkscape:window-height="1009"
     inkscape:window-x="1912"
     inkscape:window-y="-8"
     inkscape:window-maximized="1"
     inkscape:current-layer="layer1" /><defs
     id="defs2"><filter
       style="color-interpolation-filters:sRGB"
       inkscape:label="Colorize"
       id="filter4783"
       x="0"
       y="0"
       width="1"
       height="1"><feColorMatrix
         values="1.38778e-16 0 0 0 1 0 1.38778e-16 0 0 1 0 0 1.38778e-16 0 1 0 0 0 1 0"
         id="feColorMatrix4781"
         result="fbSourceGraphic" /><feColorMatrix
         result="fbSourceGraphicAlpha"
         in="fbSourceGraphic"
         values="0 0 0 -1 0 0 0 0 -1 0 0 0 0 -1 0 0 0 0 1 0"
         id="feColorMatrix10466" /><feComposite
         in2="fbSourceGraphic"
         id="feComposite10468"
         operator="arithmetic"
         k1="0"
         k2="0"
         result="composite1"
         in="fbSourceGraphic"
         k3="0"
         k4="0" /><feColorMatrix
         id="feColorMatrix10470"
         in="composite1"
         values="1"
         type="saturate"
         result="colormatrix1" /><feFlood
         id="feFlood10472"
         flood-opacity="1"
         flood-color="rgb(221,116,0)"
         result="flood1" /><feBlend
         in2="colormatrix1"
         id="feBlend10474"
         in="flood1"
         mode="normal"
         result="blend1" /><feBlend
         in2="blend1"
         id="feBlend10476"
         mode="normal"
         result="blend2" /><feColorMatrix
         id="feColorMatrix10478"
         in="blend2"
         values="1"
         type="saturate"
         result="colormatrix2" /><feComposite
         in2="fbSourceGraphic"
         id="feComposite10480"
         in="colormatrix2"
         operator="in"
         result="composite2" /></filter></defs><g
     inkscape:label="Calque 1"
     inkscape:groupmode="layer"
     id="layer1"><path
       id="rect1123"
       style="fill:#dd7400;fill-opacity:1;stroke-width:0.745356;stroke-linecap:round;stroke-linejoin:round;filter:url(#filter4783)"
       d="m 82.793389,26.681123 a 15,15.666667 0 0 0 -14.891593,13.94282 48.579151,48.579151 0 0 1 6.20479,-0.42582 48.579151,48.579151 0 0 1 23.232688,5.92006 15,15.666667 0 0 0 0.45424,-3.77032 15,15.666667 0 0 0 -15.000125,-15.66674 z m 14.545885,19.43706 A 15,15.666667 0 0 1 85.143639,57.816693 L 73.630646,81.026638 h 25.006228 l 11.275796,25.170552 a 15,15.666667 0 0 1 7.82794,3.91087 48.579151,48.579151 0 0 0 4.94492,-21.330993 48.579151,48.579151 0 0 0 -25.346256,-42.658884 z m 20.401336,63.989877 a 48.579151,48.579151 0 0 1 -21.373886,21.8121 15,15.666667 0 0 0 11.318686,5.43636 15,15.666667 0 0 0 15.00012,-15.66674 15,15.666667 0 0 0 -4.94492,-11.58172 z m -21.373886,21.8121 a 15,15.666667 0 0 1 -3.681425,-10.23038 15,15.666667 0 0 1 2.81119,-9.11521 L 88.426119,96.790527 H 65.811486 l -9.83144,19.819973 a 15,15.666667 0 0 1 0.81028,5.07928 15,15.666667 0 0 1 -4.0504,10.70322 48.579151,48.579151 0 0 0 21.36666,4.96352 48.579151,48.579151 0 0 0 22.260138,-5.43636 z M 52.739926,132.393 a 48.579151,48.579151 0 0 1 -21.81934,-21.43641 15,15.666667 0 0 0 -4.12998,10.73319 15,15.666667 0 0 0 15.00012,15.66674 15,15.666667 0 0 0 10.9492,-4.96352 z m -21.81934,-21.43641 a 15,15.666667 0 0 1 10.52804,-4.92012 l 12.40545,-25.009312 v -5.2e-4 h 5.1e-4 l 15.62127,-31.492645 a 15,15.666667 0 0 1 -1.68207,-7.18613 15,15.666667 0 0 1 0.10801,-1.72392 48.579151,48.579151 0 0 0 -42.37468,48.153124 48.579151,48.579151 0 0 0 5.39347,22.179523 z"
       inkscape:label="rect1123" /></g><g
     inkscape:groupmode="layer"
     id="layer5"
     inkscape:label="Calque 2"><path
       style="fill:#000000;stroke-width:1;stroke-linecap:round;stroke-linejoin:round"
       d="m 83.993499,122.61776 c -2.76101,0.0144 -4.987732,2.26401 -4.973882,5.02502 0.0115,1.99845 1.21187,3.79811 3.052542,4.57646 l 0.1747,4.43849 3.64591,-0.72568 0.12023,-3.73296 c 1.83283,-0.79678 3.01514,-2.60844 3.00654,-4.60695 -0.0141,-2.76161 -2.26445,-4.9888 -5.02605,-4.97438 z"
       id="path10508"
       sodipodi:nodetypes="sccccccss" /><path
       style="fill:#000000;stroke-width:1;stroke-linecap:round;stroke-linejoin:round"
       d="m 69.974413,111.44034 c -2.7612,0.0141 -4.98822,2.26382 -4.97437,5.02502 0.0115,1.99844 1.21186,3.7981 3.05252,4.57647 l 0.14676,15.9511 3.94085,0.36159 -0.14676,-16.33265 c 1.83283,-0.79678 3.01514,-2.60844 3.00654,-4.60695 -0.0141,-2.76141 -2.26414,-4.98852 -5.02554,-4.97438 z"
       id="rect1261-2-1"
       sodipodi:nodetypes="ccccccccc" /></g><g
     inkscape:groupmode="layer"
     id="layer6"
     inkscape:label="Calque 3"><path
       style="fill:#000000;stroke-width:1;stroke-linecap:round;stroke-linejoin:round"
       d="m 109.43615,77.072722 c -2.76119,1.66e-4 -4.99953,2.238511 -4.9997,4.999691 -1.2e-4,2.761394 2.23831,5.000054 4.9997,5.000214 0.5978,-7.9e-4 1.1906,-0.10878 1.75028,-0.31884 l 7.614,8.94209 3.382,0.0317 0.5031,-3.87965 -2.06453,-0.0929 -6.5841,-7.73286 c 0.26246,-0.61658 0.39831,-1.27963 0.39946,-1.949754 -1.7e-4,-2.76139 -2.23882,-4.999813 -5.00021,-4.999697 z"
       id="path10516"
       sodipodi:nodetypes="cccccccccccc" /><path
       style="fill:#000000;stroke-width:1;stroke-linecap:round;stroke-linejoin:round"
       d="m 101.0907,61.578165 c -2.761386,1.71e-4 -4.999806,2.238826 -4.999686,5.000211 1.7e-4,2.761184 2.23851,4.999524 4.999686,4.999695 1.99851,-0.0013 3.80427,-1.19255 4.59197,-3.029273 l 12.66113,0.158331 -2.00948,-3.940844 -10.65165,-0.158331 c -0.78754,-1.836925 -2.59334,-3.028393 -4.59197,-3.029789 z"
       id="rect1261-3-3"
       sodipodi:nodetypes="cccccccc" /></g><g
     inkscape:groupmode="layer"
     id="layer7"
     inkscape:label="Calque 4"><path
       style="fill:#000000;stroke-width:1;stroke-linecap:round;stroke-linejoin:round"
       d="m 40.048196,79.28353 c -1.99862,0.001 -3.80442,1.192849 -4.59197,3.02977 l -9.49113,-0.01668 -0.43798,3.957527 h 9.92911 c 0.78771,1.83672 2.59347,3.02796 4.59197,3.02927 2.76119,-1.7e-4 4.99953,-2.23851 4.9997,-4.99969 1.1e-4,-2.76138 -2.23831,-5.000033 -4.9997,-5.000193 z"
       id="path10512"
       sodipodi:nodetypes="cccccccc" /><path
       style="fill:#000000;stroke-width:1;stroke-linecap:round;stroke-linejoin:round"
       d="m 42.325506,52.064027 3.9967,4.652348 c -0.26247,0.616581 -0.39831,1.279631 -0.39946,1.94975 1.7e-4,2.761386 2.23883,4.999808 5.00021,4.99969 2.76118,-1.71e-4 4.99952,-2.238508 4.99969,-4.99969 1.2e-4,-2.761385 -2.2383,-5.000039 -4.99969,-5.00021 -0.59779,7.94e-4 -1.1906,0.108783 -1.75028,0.31884 l -4.12478,-4.349039 z"
       id="rect1261-3"
       sodipodi:nodetypes="ccccccccc" /></g></svg>
