<?xml version="1.0" encoding="UTF-8" standalone="no"?>
<!-- Created with Inkscape (http://www.inkscape.org/) -->

<svg
   width="210mm"
   height="297mm"
   viewBox="0 0 210 297"
   version="1.1"
   id="svg5"
   sodipodi:docname="logo.svg"
   inkscape:version="1.2.2 (732a01da63, 2022-12-09)"
   inkscape:export-filename="logo.png"
   inkscape:export-xdpi="96"
   inkscape:export-ydpi="96"
   xmlns:inkscape="http://www.inkscape.org/namespaces/inkscape"
   xmlns:sodipodi="http://sodipodi.sourceforge.net/DTD/sodipodi-0.dtd"
   xmlns="http://www.w3.org/2000/svg"
   xmlns:svg="http://www.w3.org/2000/svg">
  <sodipodi:namedview
     id="namedview7"
     pagecolor="#505050"
     bordercolor="#ffffff"
     borderopacity="1"
     inkscape:showpageshadow="0"
     inkscape:pageopacity="0"
     inkscape:pagecheckerboard="1"
     inkscape:deskcolor="#505050"
     inkscape:document-units="mm"
     showgrid="false"
     showguides="true"
     inkscape:zoom="0.78230784"
     inkscape:cx="534.31652"
     inkscape:cy="370.69806"
     inkscape:window-width="1920"
     inkscape:window-height="1009"
     inkscape:window-x="-8"
     inkscape:window-y="-8"
     inkscape:window-maximized="1"
     inkscape:current-layer="layer1" />
  <defs
     id="defs2">
    <inkscape:path-effect
       effect="fill_between_many"
       method="originald"
       linkedpaths="#path2761,0,1|#path2761-9,0,1"
       id="path-effect9226"
       join="true"
       close="true"
       autoreverse="true" />
    <filter
       style="color-interpolation-filters:sRGB;"
       inkscape:label="Drop Shadow"
       id="filter3408"
       x="-0.32927919"
       y="-0.3431122"
       width="1.7586519"
       height="1.5670815">
      <feFlood
         flood-opacity="0.498039"
         flood-color="rgb(0,0,0)"
         result="flood"
         id="feFlood3398" />
      <feComposite
         in="flood"
         in2="SourceGraphic"
         operator="out"
         result="composite1"
         id="feComposite3400" />
      <feGaussianBlur
         in="composite1"
         stdDeviation="27.4143"
         result="blur"
         id="feGaussianBlur3402" />
      <feOffset
         dx="20"
         dy="-35"
         result="offset"
         id="feOffset3404" />
      <feComposite
         in="offset"
         in2="SourceGraphic"
         operator="atop"
         result="composite2"
         id="feComposite3406" />
    </filter>
    <filter
       style="color-interpolation-filters:sRGB;"
       inkscape:label="Drop Shadow"
       id="filter3420"
       x="-3.733096"
       y="-8.8276843"
       width="9.6009696"
       height="15.590028">
      <feFlood
         flood-opacity="0.498039"
         flood-color="rgb(0,0,0)"
         result="flood"
         id="feFlood3410" />
      <feComposite
         in="flood"
         in2="SourceGraphic"
         operator="out"
         result="composite1"
         id="feComposite3412" />
      <feGaussianBlur
         in="composite1"
         stdDeviation="27.4143"
         result="blur"
         id="feGaussianBlur3414" />
      <feOffset
         dx="20"
         dy="-35"
         result="offset"
         id="feOffset3416" />
      <feComposite
         in="offset"
         in2="SourceGraphic"
         operator="atop"
         result="composite2"
         id="feComposite3418" />
    </filter>
  </defs>
  <g
     inkscape:label="Calque 1"
     inkscape:groupmode="layer"
     id="layer1">
    <circle
       id="path233"
       style="fill:#999999;stroke:#000000;stroke-width:0.264583"
       cx="72.369118"
       cy="123.95898"
       r="0" />
    <circle
       id="path235"
       style="fill:#999999;stroke:#000000;stroke-width:0.264583"
       cx="142.58867"
       cy="222.12303"
       r="0" />
    <circle
       id="path237"
       style="fill:#999999;stroke:#000000;stroke-width:0.264583"
       cx="142.58867"
       cy="222.12303"
       r="0" />
    <circle
       id="path442"
       style="fill:#999999;stroke:#000000;stroke-width:0.264583"
       cx="119.65983"
       cy="271.20505"
       r="0" />
    <path
       id="path2761"
       style="fill:#30844c;fill-opacity:1;stroke-width:0;stroke-linecap:round;stroke-linejoin:round;filter:url(#filter3408)"
       d="m 105.08247,4.060734 v 5.168e-4 5.168e-4 c -0.0464,3.193e-4 -0.0931,0.00105 -0.13952,0.00207 -0.16778,0.010245 -0.28154,0.015155 -0.44649,0.032556 -0.0541,0.00571 -0.10725,0.015153 -0.16019,0.024805 -0.10013,0.033994 -0.19979,0.069753 -0.29818,0.1085205 -0.12071,0.07124 -0.23707,0.1490695 -0.34261,0.2418457 -0.15174,0.1266326 -0.29891,0.2589323 -0.44804,0.3886068 -0.19119,0.1640416 -0.39256,0.3154044 -0.58497,0.478007 -0.20592,0.1690155 -0.41454,0.3347487 -0.6165,0.508496 -0.0641,0.056445 -0.12792,0.1132297 -0.1881,0.1736329 -0.065,0.076408 -0.12844,0.1539862 -0.19327,0.2304768 -0.10748,0.1428729 -0.21107,0.2885758 -0.31988,0.4304647 -0.12634,0.1710477 -0.25052,0.3435399 -0.37879,0.513147 -0.13971,0.1816575 -0.27848,0.3645841 -0.40463,0.5560384 -0.11391,0.169592 -0.22218,0.3427983 -0.32504,0.5193482 -0.0939,0.1586258 -0.18429,0.3193259 -0.270786,0.4821411 -0.06149,0.1159636 -0.123262,0.231897 -0.173116,0.3534668 -0.003,0.00732 -0.0086,0.00691 -0.01188,0.013436 -0.0042,0.01537 -0.0081,0.030614 -0.0124,0.045992 -0.02266,0.074983 -0.04955,0.1486818 -0.07183,0.2237589 -0.06362,29.2293288 -0.0098,58.4645468 -0.02739,87.6938718 0.01318,1.813242 -0.02615,3.640254 0.01964,5.445144 0.671741,0.89038 1.824841,1.38293 2.209171,2.49856 1.68374,2.91023 0.4313,7.16917 -2.740405,8.4646 -3.225653,1.567 -7.781675,0.0801 -8.974646,-3.43183 -0.951847,-2.69434 0.221745,-6.00109 2.738334,-7.39645 0.490134,-1.11452 -0.0094,-2.36027 0.179317,-3.528469 -0.0084,-27.210939 -9.58e-4,-54.435781 -0.01912,-81.641529 -0.614485,0.06925 -0.755256,0.859909 -1.178223,1.228349 -2.4137,3.201637 -4.938389,6.321897 -7.257438,9.594247 -0.226361,3.689568 -0.05145,7.389981 -0.10697,11.084078 l 0.0036,25.142134 c 0.66645,0.893846 1.914841,1.248306 2.353345,2.344043 1.962114,2.787324 1.022306,7.225981 -2.111499,8.736418 -3.151955,1.748848 -7.789893,0.51334 -9.206673,-2.927987 -1.108493,-2.599047 -0.17998,-5.939299 2.2071,-7.492049 0.467859,-1.244436 -0.01209,-2.594059 0.173633,-3.881934 -0.0094,-7.952716 0.02797,-15.934177 -0.02739,-23.869861 -0.636532,0.171516 -0.783324,0.982541 -1.228349,1.413351 -1.786388,2.488455 -3.678588,4.905917 -5.312854,7.500317 -0.07883,9.81497 -0.01009,19.63302 -0.03204,29.448332 9.01e-4,12.507997 0.0022,25.01826 0.0031,37.52639 0.951688,1.67329 2.552108,2.83677 3.730005,4.33824 3.331853,3.66892 6.67481,7.32784 10.031429,10.97452 1.147235,0.23433 2.389462,-0.23166 3.485575,0.34003 3.197945,0.94144 5.464151,4.76874 4.109827,7.95869 -1.379805,3.75328 -6.670145,5.44414 -9.851595,2.90163 -1.96365,-1.37584 -3.028566,-3.95067 -2.519226,-6.29832 -0.554837,-1.08582 -1.689193,-1.7157 -2.366264,-2.72025 -4.226939,-4.71795 -8.601988,-9.31371 -12.707751,-14.13454 -1.025013,-2.63111 -0.2346,-5.49131 -0.496094,-8.22378 -9.25e-4,-17.51683 0.01052,-35.037095 -0.01395,-52.553902 -0.588464,0.120032 -0.693809,0.891104 -1.088822,1.277441 -3.31029,4.898349 -6.618644,9.801203 -9.783899,14.794446 0.02633,1.257702 0.289538,2.506338 0.140043,3.767212 -0.03413,21.303349 -0.0166,42.610943 -0.01912,63.914443 0.931443,1.60188 2.529654,2.65075 3.693314,4.06694 11.396506,11.80263 22.795188,23.6071 34.191712,35.40972 1.152503,0.25301 2.428289,-0.12247 3.496427,0.52297 2.964169,1.1099 5.01409,4.71799 3.75481,7.76955 -1.363546,3.96561 -7.071867,5.57279 -10.219531,2.73162 -1.905668,-1.51797 -2.754331,-4.21138 -2.067058,-6.53397 -0.480629,-1.12738 -1.678224,-1.7031 -2.372465,-2.68253 -12.144654,-12.58031 -24.314885,-25.14664 -36.414315,-37.7672 -1.232974,-2.35147 -0.380447,-5.05571 -0.642854,-7.56853 -9.88e-4,-17.6687 0.01064,-35.36149 -0.01964,-53.016919 -0.561422,0.149389 -0.603986,0.904553 -0.968417,1.296044 -8.518052,14.302496 -16.454647,28.984955 -23.095748,44.272235 -0.08579,20.57634 -0.01474,41.15935 -0.05168,61.73421 -0.07876,0.58988 0.05131,1.19009 0.602547,1.50637 0.927781,0.67008 1.658307,1.57288 2.029334,2.66186 1.205382,3.00046 -0.380431,6.87974 -3.512964,7.91114 -3.104609,1.21141 -7.240922,-0.13458 -8.464083,-3.3817 -1.101918,-2.6753 -0.02626,-6.15347 2.580204,-7.52151 0.551654,-1.04379 0.01971,-2.25611 0.21084,-3.37189 -0.02989,-14.37731 -0.01451,-28.76386 -0.03101,-43.13793 -0.448159,0.21687 -0.338062,0.88521 -0.595829,1.26917 -4.764654,13.21987 -8.3442601,26.86803 -9.6924318,40.86159 -1.1673055,11.94526 -0.6969258,24.12766 2.4380941,35.77714 2.0242057,7.59888 5.1717747,15.00095 9.4759077,21.66897 4.244203,6.59779 9.400577,12.60918 15.22181,17.87229 0.464532,-0.51173 0.09221,-1.30321 0.207739,-1.93218 -0.04668,-33.1416 0.01418,-66.28912 -0.02067,-99.43063 -0.05783,-0.61907 0.091,-1.31108 -0.07958,-1.89084 -0.760284,-0.79338 -1.821997,-1.33925 -2.238623,-2.42 -1.583028,-2.74337 -0.642943,-6.84567 2.326473,-8.21707 0.0026,-8.8e-4 0.0051,-0.001 0.0078,-0.001 0.0025,-0.002 0.0055,-0.004 0.0088,-0.006 0.01453,-0.009 0.03065,-0.0147 0.04651,-0.0207 0.0053,-0.002 0.01041,-0.004 0.01499,-0.004 0.0052,-6.5e-4 0.0099,-4.4e-4 0.01395,5.2e-4 0.01738,-0.009 0.03481,-0.0174 0.05323,-0.0243 0.02914,-0.0124 0.05819,-0.0261 0.08785,-0.0372 0.03146,-0.0128 0.06284,-0.0251 0.09457,-0.0372 0.02602,-0.0104 0.05216,-0.0208 0.07803,-0.0315 0.03101,-0.0122 0.06178,-0.0243 0.0925,-0.0372 0.03086,-0.0126 0.06212,-0.0245 0.09353,-0.0357 0.03386,-0.0127 0.06797,-0.0249 0.102319,-0.0362 0.0441,-0.0149 0.08787,-0.0306 0.132808,-0.0429 0.04699,-0.0122 0.09421,-0.0225 0.142111,-0.0305 0.05638,-0.0109 0.113215,-0.0204 0.170015,-0.0284 0.06718,-0.0101 0.134085,-0.0223 0.200505,-0.0367 0.05053,-0.0103 0.101168,-0.0215 0.151928,-0.0305 0.05473,-0.01 0.109075,-0.0205 0.163815,-0.0305 0.06091,-0.0124 0.1219,-0.0249 0.182934,-0.0367 0.06459,-0.0128 0.129097,-0.0255 0.193787,-0.0377 0.05329,-0.011 0.1065,-0.0221 0.15968,-0.0336 0.02939,-0.006 0.05914,-0.011 0.08888,-0.015 0.03239,-0.006 0.06437,-0.0126 0.09663,-0.0186 0.03009,-0.006 0.06018,-0.0119 0.09043,-0.017 0.0426,-0.007 0.0852,-0.0153 0.127641,-0.0233 0.07804,-0.0141 0.156054,-0.0288 0.234094,-0.0429 0.07953,-0.0136 0.158679,-0.0294 0.238229,-0.0429 0.0047,-0.003 0.01101,-0.007 0.0186,-0.009 0.0056,-0.002 0.01145,-0.003 0.01705,-0.005 0.02523,-0.006 0.05086,-0.0113 0.07648,-0.016 0.0062,-0.005 0.01531,-0.008 0.02739,-0.009 7.92e-4,-3e-5 0.0012,0 0.0021,0 0.01075,-3e-5 0.02173,-1.7e-4 0.03256,0 0.796515,-0.30335 1.795708,0.0463 2.562118,0.33228 2.478949,1.00651 4.299987,3.6788 3.86488,6.39392 -0.201196,1.89655 -1.417365,3.56815 -2.959509,4.60954 -0.360824,1.18449 0.05549,2.43751 -0.119373,3.64991 -0.0091,34.27667 0.01313,68.56311 -0.0155,102.83868 -0.07844,0.64653 -0.650718,1.05244 -0.912089,1.60921 1.347178,1.42533 3.102759,2.36535 4.641577,3.5605 4.013376,2.79579 8.260239,5.44075 12.610083,7.69152 0.417489,-0.67698 0.06358,-1.55539 0.175183,-2.31303 -0.01692,-16.38819 -0.02198,-32.77911 -0.01705,-49.16755 -0.688105,-0.91203 -1.920664,-1.35573 -2.340425,-2.49442 -1.809647,-2.90154 -0.611372,-7.28617 2.608109,-8.62273 3.187852,-1.55585 7.691775,-0.15433 8.947774,3.29283 1.038413,2.64118 -0.0579,5.93287 -2.483052,7.4104 -0.468624,1.19051 0.02476,2.49081 -0.161747,3.72742 0.0039,17.13375 0.0075,34.27113 0.01137,51.40513 0.686333,0.93513 1.999241,0.96769 2.919719,1.58853 3.279427,1.4362 6.559014,2.90922 9.939962,4.07934 0.389075,-0.70982 0.04668,-1.60877 0.153995,-2.3921 l -0.0057,-75.69926 c -0.697617,-0.97977 -1.943959,-1.54867 -2.280481,-2.78794 -1.408336,-2.78026 -0.26692,-6.56127 2.536279,-7.98969 3.269623,-2.00448 8.20594,-0.30812 9.33173,3.42046 1.005309,2.62683 -0.23466,5.81704 -2.68459,7.1608 -0.631325,0.79249 -0.219519,1.903 -0.327112,2.83342 0.01496,25.91179 0.0018,51.82913 0.0062,77.74151 0.638615,0.79659 1.828969,0.66045 2.685108,1.10639 3.366749,1.1369 6.726289,2.17334 10.150801,3.09697 0.421117,-0.70183 0.06345,-1.60776 0.173633,-2.39055 -0.0013,-10.7729 -0.0023,-21.54761 -0.0036,-32.32051 -0.695994,-0.93328 -1.990058,-1.33455 -2.425175,-2.49029 -1.87219,-2.86601 -0.73226,-7.27877 2.4722,-8.6527 3.098415,-1.55345 7.513229,-0.35527 8.904369,2.95744 1.16721,2.59458 0.26004,5.98313 -2.14664,7.54321 -0.47991,1.22897 -0.0118,2.5761 -0.20206,3.85248 -0.0249,11.08396 -0.0278,22.17767 -0.007,33.25688 0.59267,0.56099 1.58029,0.32931 2.23139,0.84181 1.091,0.26272 2.07195,-0.5616 3.13882,-0.67799 6.98299,-1.73216 13.89732,-3.80512 20.68039,-6.17792 0.49023,-0.87547 0.0191,-1.9283 0.17209,-2.87786 0.0153,-19.94426 0.0204,-39.89241 0.0155,-59.83666 -0.67569,-0.98058 -1.96314,-1.47572 -2.33577,-2.6851 -1.72491,-3.04054 -0.14018,-7.43946 3.22822,-8.52558 3.1519,-1.22872 7.34999,0.17469 8.5664,3.4742 1.07949,2.71224 -0.13366,6.11347 -2.69389,7.51944 -0.47724,1.15495 0.0509,2.42389 -0.13591,3.6282 0.007,18.86729 -0.0327,37.75126 0.006,56.60999 0.69571,0.22338 1.33331,-0.43928 1.99782,-0.58705 7.52377,-3.03404 14.86557,-6.48517 21.87928,-10.59263 0.53347,-1.11782 0.0182,-2.39045 0.21084,-3.57343 v -35.40714 c -0.95033,-1.67428 -2.55765,-2.82934 -3.73827,-4.3279 -6.61821,-7.2484 -13.2379,-14.49802 -19.85564,-21.74648 -1.15094,-0.19313 -2.3584,0.36035 -3.47834,-0.15141 -3.18002,-0.71639 -5.72881,-4.19641 -4.74958,-7.45071 0.98716,-3.95622 6.23509,-6.1068 9.65729,-3.81062 2.11988,1.22582 3.46384,3.7916 3.03547,6.23528 0.57611,1.27823 1.85389,2.03347 2.65152,3.15691 7.24275,7.93422 14.48667,15.86949 21.72943,23.80372 0.0155,0.0266 0.0131,0.0527 0.0248,0.0791 0.0306,0.004 0.0658,0.0196 0.10232,0.0522 0.11968,0.10685 0.21881,0.23425 0.31471,0.36225 0.0537,0.0739 0.10203,0.15131 0.15348,0.22686 0.0243,0.0114 0.0499,0.0314 0.0744,0.062 0.0142,0.0178 0.0236,0.0397 0.0367,0.0584 0.0361,0.005 0.077,0.0273 0.11472,0.0744 0.0429,0.0536 0.0796,0.1119 0.11679,0.1695 0.0406,0.071 0.0704,0.14744 0.10077,0.22324 0.0246,0.0622 0.0337,0.12899 0.0594,0.19069 0.0236,0.0533 0.04,0.10928 0.063,0.16278 0.0246,0.0608 0.0458,0.12315 0.0625,0.18655 0.004,0.0152 0.007,0.0306 0.0103,0.046 v 5.2e-4 c 0.006,0.0177 0.0172,0.0325 0.0222,0.0506 0.0257,0.0902 0.0396,0.18285 0.0486,0.27595 2.4e-4,0.003 2.8e-4,0.006 5.1e-4,0.008 0.007,0.0321 0.013,0.0647 0.0176,0.0987 3e-4,0.003 2.3e-4,0.006 5.2e-4,0.008 0.005,0.017 0.0103,0.0341 0.0155,0.0512 0.025,0.0847 0.0411,0.17161 0.0501,0.25941 0.005,0.0513 0.003,0.0261 0.006,0.076 6e-5,0.001 -6e-5,0.002 0,0.003 7e-5,0.004 0.003,0.006 0.003,0.0103 v 0.74569 0.42323 c 0,0.0151 -0.001,0.0296 -0.001,0.0439 0.0231,0.3503 -0.0115,0.71631 -0.0336,1.07797 4e-5,6.9e-4 -3e-5,0.001 0,0.002 0.003,0.0559 0.005,0.11196 0.007,0.16794 0.005,0.12482 0.007,0.24978 0.009,0.37466 0.001,0.0678 0.002,0.1358 0.002,0.2036 1.1e-4,0.0266 -0.003,0.0504 -0.009,0.0703 0.001,0.008 0.001,0.0164 0.002,0.0243 -0.0197,10.72689 0.0106,21.45941 -0.0217,32.18408 -0.0462,0.32704 -0.0269,0.9593 0.46199,0.61392 6.15685,-4.25248 11.96936,-9.04844 17.0801,-14.52728 0.43606,-1.80112 0.0245,-3.66585 0.16949,-5.49424 l 0.006,-95.53112 c -0.71583,-0.94353 -2.01816,-1.35373 -2.46652,-2.53008 -1.75262,-2.77078 -0.79199,-6.94972 2.19884,-8.44237 3.11971,-1.78135 7.74806,-0.65859 9.26558,2.72438 1.24382,2.65249 0.24035,6.12541 -2.2226,7.70909 -0.46452,1.24241 0.0161,2.59053 -0.16795,3.87625 0.0176,29.71052 0.01,59.43824 0.0191,89.14133 0.62299,-0.12903 0.74458,-0.93828 1.16582,-1.34773 7.49048,-11.04711 12.13073,-24.07614 13.43897,-37.35896 2.05741,-19.92257 -2.01239,-39.98035 -8.37933,-58.81604 -6.7533,-20.03285 -16.2896,-39.03822 -26.83454,-57.303999 -1.19126,-2.004236 -2.3478,-4.115698 -3.59978,-6.03064 -0.36091,0.434336 -0.0382,1.079403 -0.14521,1.601453 0.0536,31.449776 0.003,62.905916 0.0615,94.355476 -0.0229,3.12955 0.0513,6.26832 -0.032,9.3922 -0.44387,2.44674 -3.91873,3.39608 -5.62291,1.63297 -1.25475,-1.14935 -2.18583,-2.59932 -3.40806,-3.78375 -6.42373,-7.09644 -12.88883,-14.15913 -19.34921,-21.22764 -1.18016,-0.2658 -2.48593,0.1176 -3.58272,-0.53847 -3.01326,-1.09722 -5.08234,-4.79644 -3.73724,-7.86154 1.46984,-3.92592 7.17029,-5.44106 10.29859,-2.57297 1.85762,1.52534 2.69774,4.17001 2.04329,6.47506 0.47639,1.16417 1.68432,1.79028 2.36833,2.81688 4.73744,5.15122 9.44699,10.39833 14.2136,15.47968 0.41034,-0.55624 0.0636,-1.33549 0.17415,-1.98489 -0.0407,-33.56797 -0.023,-67.14217 -0.0124,-100.710134 0.0336,-1.23635 -0.0734,-2.498348 0.11369,-3.710885 -0.31324,-0.962041 -1.13492,-1.661267 -1.58027,-2.565735 -2.78647,-4.419633 -5.68052,-8.794402 -8.62686,-13.094808 -0.4075,0.470957 -0.0592,1.190068 -0.17208,1.764234 0.0295,14.744959 0.0166,29.493028 0.0176,44.238128 0.70729,0.95253 1.98505,1.40951 2.41174,2.59364 1.70366,2.82706 0.60581,7.01695 -2.4505,8.41809 -3.17609,1.69852 -7.79823,0.41949 -9.1798,-3.03754 -1.13831,-2.66641 -0.032,-6.05912 2.44895,-7.55251 0.46468,-1.18982 -0.0256,-2.48694 0.16019,-3.72174 -0.004,-17.441786 -0.008,-34.887311 -0.0114,-52.329104 -1.22327,-2.314968 -3.0091,-4.262937 -4.43538,-6.447669 -1.2093,-1.660666 -2.40025,-3.39567 -3.65456,-4.985742 -0.39511,0.525643 -0.0571,1.263873 -0.16537,1.878955 0.0371,32.821251 0.0142,65.64923 0.0186,98.47048 0.71373,0.93695 2.0035,1.35095 2.45618,2.5156 1.80515,2.81815 0.75265,7.10557 -2.33888,8.54315 -3.14062,1.68757 -7.71635,0.49756 -9.15241,-2.90266 -1.16344,-2.59829 -0.23253,-5.99274 2.1916,-7.52926 0.48014,-1.22985 0.015,-2.5777 0.20309,-3.85454 0.0267,-35.03381 0.0179,-70.074813 0.0408,-105.108318 0.22501,-1.219285 -0.73086,-2.121599 -1.42265,-2.975529 -3.02858,-4.044169 -6.12459,-8.076655 -9.26094,-12.01477 -0.4124,0.542651 -0.0652,1.31784 -0.17621,1.955953 0.0543,44.246022 0.007,88.500994 0.0217,132.746934 0.004,19.59452 -0.008,39.19818 0.006,58.7897 0.68675,0.77922 1.89488,0.91522 2.46032,1.85156 2.29673,2.37641 2.25163,6.74234 -0.45527,8.7974 -2.94552,2.48557 -8.14072,1.82949 -10.01489,-1.66295 -1.36422,-2.3757 -0.81766,-5.62879 1.18752,-7.47655 0.39233,-1.77916 0.0693,-3.61507 0.17777,-5.4193 0.006,-65.95226 0.0123,-131.917427 0.0181,-197.8695799 -0.53871,-1.3310286 -1.71753,-2.2463234 -2.52026,-3.4085774 -0.0142,-0.010818 -0.0281,-0.021806 -0.0424,-0.032556 -0.0828,-0.06396 -0.16463,-0.1285136 -0.24185,-0.1989543 -0.0811,-0.044425 -0.16125,-0.090691 -0.24391,-0.1322916 -0.009,-0.00411 -0.0172,-0.00834 -0.0258,-0.012402 -0.22896,-0.058829 -0.45722,-0.1208648 -0.68988,-0.1632975 -0.22986,-0.037775 -0.35506,-0.0609 -0.58601,-0.088884 -0.32291,-0.039134 -0.64793,-0.054429 -0.97307,-0.052193 z M 19.823596,128.26039 c -0.33247,0.0153 -0.13935,0.66361 0.03307,0.28319 0.01111,-0.0543 0.0973,-0.3174 -0.03307,-0.28319 z m 64.433793,4.78317 c -0.149951,0.45501 0.427044,-0.0146 0,0 z m -47.515962,14.42082 c -0.0074,0.002 -0.0148,0.003 -0.02222,0.004 3.36e-4,4.9e-4 0.001,0.001 0.001,0.002 0.0028,1.4e-4 0.0059,-1.8e-4 0.0083,5.1e-4 0.0041,-0.003 0.0088,-0.004 0.01292,-0.006 z m -0.356051,0.0651 c -0.0093,0.002 -0.01859,0.003 -0.02791,0.005 -0.0423,0.008 -0.08467,0.0158 -0.127124,0.0227 0.02824,-0.005 0.05637,-0.009 0.08475,-0.0129 0.02344,-0.005 0.04686,-0.01 0.07028,-0.015 z m -0.156063,0.0274 c -0.01088,0.002 -0.02168,0.005 -0.03256,0.007 0.01087,-0.002 0.02166,-0.004 0.03256,-0.006 z m -0.03256,0.007 v -5.2e-4 c -0.0064,0.001 -0.01276,0.002 -0.01912,0.004 0.0064,-0.001 0.01276,-0.002 0.01912,-0.003 z m -0.01912,0.002 c -0.01243,0.002 -0.02482,0.005 -0.03721,0.007 -0.03278,0.006 -0.06528,0.0121 -0.09819,0.0181 -0.02406,0.003 -0.04797,0.008 -0.07183,0.0129 0.01894,-0.002 0.03786,-0.005 0.05684,-0.007 0.05009,-0.0104 0.100203,-0.0206 0.150379,-0.0305 z m -1.591118,0.65267 v 5.2e-4 c -0.0024,0 -0.009,0.001 -0.0067,0.002 0.0052,0.002 0.01105,8.6e-4 0.01705,-5.2e-4 -0.0027,-10e-4 -0.0059,-0.002 -0.01034,-0.002 z m 0.216008,0.12868 c -0.0069,9.1e-4 -0.01379,0.002 -0.02067,0.003 0.0036,0.003 0.0077,0.005 0.01137,0.007 0.0017,-0.004 0.0074,-0.006 0.0093,-0.0103 z M 162.73994,190.7868 c -0.22442,0.2628 0.26105,0.64734 0.20102,0.20154 -0.025,-0.0915 -0.10547,-0.19175 -0.20102,-0.20154 z m 2.43551,42.38708 c 0.01,0.0222 0.0229,0.0423 0.0315,0.0651 0.002,0.005 0.004,0.009 0.006,0.0134 0.009,0.009 0.0201,0.0163 0.0295,0.0253 -0.009,-0.0128 -0.017,-0.0258 -0.0253,-0.0388 -0.0133,-0.0221 -0.0276,-0.0434 -0.0419,-0.0651 z m -0.47284,0.42013 c 0.006,0.0143 0.0117,0.0286 0.0176,0.0429 0.003,0.008 0.007,0.0169 0.0103,0.0253 0.004,-0.0111 0.009,-0.0219 0.014,-0.032 -0.0126,-0.0136 -0.0297,-0.0221 -0.0419,-0.0362 z M 99.449227,297.7503 c -0.01217,8.2e-4 -0.0246,0.002 -0.03669,0.003 -0.0054,10e-4 0.01124,0.004 0.01654,0.003 0.0056,-0.001 0.01253,-0.004 0.02015,-0.006 z m -0.115239,0.062 c 0.04639,0.0201 0.07602,0.0153 0,0 z" />
    <path
       id="rect3054"
       style="fill:#000000;fill-opacity:0;stroke-width:0;stroke-linecap:round;stroke-linejoin:round;filter:url(#filter3420)"
       d="m 226.51562,107.53906 c -5.43852,0.008 -10.88444,-0.0143 -16.31835,0.0137 -0.45751,0.53866 -0.0697,1.3547 -0.19515,2.00664 0.0155,3.0648 -0.0483,6.13052 0.0448,9.19454 0.75949,0.39657 1.67487,0.0253 2.49765,0.15244 4.94349,-0.004 9.88707,0.0189 14.83047,-0.0196 0.43264,-0.67373 0.0636,-1.55374 0.17773,-2.31367 -0.007,-2.96643 0.0328,-5.93327 -0.0371,-8.89922 -0.28067,-0.21431 -0.6736,-0.13414 -1,-0.13477 z" />
  </g>
</svg>
